<svg xmlns="http://www.w3.org/2000/svg" xmlns:xlink="http://www.w3.org/1999/xlink" viewBox="0 0 268.84 261.23"><defs><style>.cls-1{fill:url(#linear-gradient);}</style><linearGradient id="linear-gradient" x1="192.24" y1="60.85" x2="192.24" y2="322.07" gradientUnits="userSpaceOnUse"><stop offset="0" stop-color="#f7b319"/><stop offset="1" stop-color="#ed2224"/></linearGradient></defs><g id="Layer_1" data-name="Layer 1"><path class="cls-1" d="M83.77,181.49c0-134.87,111.94-100.27,242.89-120.64C301,179.33,186.19,84.44,128.54,166.21c38-48.4,99.19-15.74,155.63-33.69-36.7,109.6-89.76,32.36-151.64,91.78C178,194,212.68,211.89,242.27,202.36c-33.92,71.83-41,52-106.41,70.5-9.31,2.62-18.37,4.39-24.69,16-4.52,10.67-.07,27.69,3.41,33.19,0,0-26.66-11.66-30-35.37A67.73,67.73,0,0,1,83.77,275V225.63c0-14.63-25.95-20.95-25.95-20.95s25.95-8.12,25.95-23.19Z" transform="translate(-57.82 -60.85)"/></g></svg>